<?xml version="1.0" standalone="yes"?>

<svg version="1.1" viewBox="0.0 0.0 957.0 634.0" fill="none" stroke="none" stroke-linecap="square" stroke-miterlimit="10" xmlns="http://www.w3.org/2000/svg" xmlns:xlink="http://www.w3.org/1999/xlink"><clipPath id="p.0"><path d="m0 0l957.0 0l0 634.0l-957.0 0l0 -634.0z" clip-rule="nonzero"></path></clipPath><g clip-path="url(#p.0)"><path fill="#000000" fill-opacity="0.0" d="m0 0l957.56696 0l0 634.89764l-957.56696 0z" fill-rule="nonzero"></path><path fill="#f3f3f3" d="m16.086615 70.17693l0 0c0 -29.873257 24.217062 -54.090317 54.090317 -54.090317l216.3548 0l0 0c14.345642 0 28.10373 5.698784 38.24762 15.842688c10.14389 10.143904 15.842682 23.901987 15.842682 38.247627l0 492.63824c0 29.873291 -24.217041 54.090332 -54.0903 54.090332l-216.3548 0c-29.873257 0 -54.090317 -24.217041 -54.090317 -54.090332z" fill-rule="nonzero"></path><path stroke="#999999" stroke-width="2.0" stroke-linejoin="round" stroke-linecap="butt" stroke-dasharray="8.0,6.0" d="m16.086615 70.17693l0 0c0 -29.873257 24.217062 -54.090317 54.090317 -54.090317l216.3548 0l0 0c14.345642 0 28.10373 5.698784 38.24762 15.842688c10.14389 10.143904 15.842682 23.901987 15.842682 38.247627l0 492.63824c0 29.873291 -24.217041 54.090332 -54.0903 54.090332l-216.3548 0c-29.873257 0 -54.090317 -24.217041 -54.090317 -54.090332z" fill-rule="nonzero"></path><path fill="#cfe2f3" d="m465.44357 95.60787l0 0c0 -43.383488 35.16925 -78.55275 78.552765 -78.55275l314.20154 0l0 0c20.833496 0 40.81372 8.27607 55.545227 23.007568c14.731506 14.731499 23.007568 34.711697 23.007568 55.545185l0 443.68192c0 43.383484 -35.16925 78.552734 -78.552795 78.552734l-314.20154 0c-43.383514 0 -78.552765 -35.16925 -78.552765 -78.552734z" fill-rule="nonzero"></path><path stroke="#999999" stroke-width="2.0" stroke-linejoin="round" stroke-linecap="butt" stroke-dasharray="8.0,6.0" d="m465.44357 95.60787l0 0c0 -43.383488 35.16925 -78.55275 78.552765 -78.55275l314.20154 0l0 0c20.833496 0 40.81372 8.27607 55.545227 23.007568c14.731506 14.731499 23.007568 34.711697 23.007568 55.545185l0 443.68192c0 43.383484 -35.16925 78.552734 -78.552795 78.552734l-314.20154 0c-43.383514 0 -78.552765 -35.16925 -78.552765 -78.552734z" fill-rule="nonzero"></path><path fill="#000000" fill-opacity="0.0" d="m-205.77505 42.58005l178.61417 0l0 63.59055l-178.61417 0z" fill-rule="nonzero"></path><path fill="#000000" d="m-148.6512 81.29533l5.234375 -13.59375l1.9375 0l5.5625 13.59375l-2.046875 0l-1.59375 -4.125l-5.6875 0l-1.484375 4.125l-1.921875 0zm3.921875 -5.578125l4.609375 0l-1.40625 -3.78125q-0.65625 -1.703125 -0.96875 -2.8125q-0.265625 1.3125 -0.734375 2.59375l-1.5 4.0zm9.802948 5.578125l0 -9.859375l1.5 0l0 1.40625q1.09375 -1.625 3.140625 -1.625q0.890625 0 1.640625 0.328125q0.7500076 0.3125 1.1093826 0.84375q0.375 0.515625 0.53125 1.21875q0.09375 0.46875 0.09375 1.625l0 6.0625l-1.6718826 0l0 -6.0q0 -1.015625 -0.203125 -1.515625q-0.1875 -0.515625 -0.6875 -0.8125q-0.5 -0.296875 -1.171875 -0.296875q-1.0625 0 -1.84375 0.671875q-0.765625 0.671875 -0.765625 2.578125l0 5.375l-1.671875 0zm10.07885 0.8125l1.609375 0.25q0.109375 0.75 0.578125 1.09375q0.609375 0.453125 1.6875 0.453125q1.171875 0 1.796875 -0.46875q0.625 -0.453125 0.859375 -1.28125q0.125 -0.515625 0.109375 -2.15625q-1.09375 1.296875 -2.71875 1.296875q-2.03125 0 -3.15625 -1.46875q-1.109375 -1.46875 -1.109375 -3.515625q0 -1.40625 0.515625 -2.59375q0.515625 -1.203125 1.484375 -1.84375q0.96875 -0.65625 2.265625 -0.65625q1.75 0 2.875 1.40625l0 -1.1875l1.546875 0l0 8.515625q0 2.3125 -0.46875 3.265625q-0.46875 0.96875 -1.484375 1.515625q-1.015625 0.5625 -2.5 0.5625q-1.765625 0 -2.859375 -0.796875q-1.078125 -0.796875 -1.03125 -2.390625zm1.375 -5.921875q0 1.953125 0.765625 2.84375q0.78125 0.890625 1.9375 0.890625q1.140625 0 1.921875 -0.890625q0.78125 -0.890625 0.78125 -2.78125q0 -1.8125 -0.8125 -2.71875q-0.796875 -0.921875 -1.921875 -0.921875q-1.109375 0 -1.890625 0.90625q-0.78125 0.890625 -0.78125 2.671875zm15.750717 5.109375l0 -1.453125q-1.140625 1.671875 -3.125 1.671875q-0.859375 0 -1.625 -0.328125q-0.75 -0.34375 -1.125 -0.84375q-0.359375 -0.5 -0.515625 -1.234375q-0.09375 -0.5 -0.09375 -1.5625l0 -6.109375l1.671875 0l0 5.46875q0 1.3125 0.09375 1.765625q0.15625 0.65625 0.671875 1.03125q0.515625 0.375 1.265625 0.375q0.75 0 1.40625 -0.375q0.65625 -0.390625 0.921875 -1.046875q0.28125 -0.671875 0.28125 -1.9375l0 -5.28125l1.671875 0l0 9.859375l-1.5 0zm3.8913422 0l0 -13.59375l1.671875 0l0 13.59375l-1.671875 0zm10.613571 -1.21875q-0.9375 0.796875 -1.796875 1.125q-0.859375 0.3125 -1.84375 0.3125q-1.609375 0 -2.484375 -0.78125q-0.875 -0.796875 -0.875 -2.03125q0 -0.734375 0.328125 -1.328125q0.328125 -0.59375 0.859375 -0.953125q0.53125 -0.359375 1.203125 -0.546875q0.5 -0.140625 1.484375 -0.25q2.03125 -0.25 2.984375 -0.578125q0 -0.34375 0 -0.4375q0 -1.015625 -0.46875 -1.4375q-0.640625 -0.5625 -1.90625 -0.5625q-1.171875 0 -1.734375 0.40625q-0.5625 0.40625 -0.828125 1.46875l-1.640625 -0.234375q0.234375 -1.046875 0.734375 -1.6875q0.515625 -0.640625 1.46875 -0.984375q0.96875 -0.359375 2.25 -0.359375q1.265625 0 2.046875 0.296875q0.78125 0.296875 1.15625 0.75q0.375 0.453125 0.515625 1.140625q0.09375 0.421875 0.09375 1.53125l0 2.234375q0 2.328125 0.09375 2.953125q0.109375 0.609375 0.4375 1.171875l-1.75 0q-0.265625 -0.515625 -0.328125 -1.21875zm-0.140625 -3.71875q-0.90625 0.359375 -2.734375 0.625q-1.03125 0.140625 -1.453125 0.328125q-0.421875 0.1875 -0.65625 0.546875q-0.234375 0.359375 -0.234375 0.796875q0 0.671875 0.5 1.125q0.515625 0.4375 1.484375 0.4375q0.96875 0 1.71875 -0.421875q0.75 -0.4375 1.109375 -1.15625q0.265625 -0.578125 0.265625 -1.671875l0 -0.609375zm4.063217 4.9375l0 -9.859375l1.5 0l0 1.5q0.578125 -1.046875 1.0625 -1.375q0.484375 -0.34375 1.078125 -0.34375q0.84375 0 1.71875 0.546875l-0.578125 1.546875q-0.609375 -0.359375 -1.234375 -0.359375q-0.546875 0 -0.984375 0.328125q-0.421875 0.328125 -0.609375 0.90625q-0.28125 0.890625 -0.28125 1.953125l0 5.15625l-1.671875 0z" fill-rule="nonzero"></path><path fill="#000000" fill-opacity="0.0" d="m16.085835 16.086615l178.61418 0l0 63.590546l-178.61418 0z" fill-rule="nonzero"></path><path fill="#000000" d="m37.390682 54.801884l0 -13.59375l1.84375 0l7.140625 10.671875l0 -10.671875l1.71875 0l0 13.59375l-1.84375 0l-7.140625 -10.6875l0 10.6875l-1.71875 0zm19.707321 -1.21875q-0.9375 0.796875 -1.796875 1.125q-0.859375 0.3125 -1.84375 0.3125q-1.609375 0 -2.484375 -0.78125q-0.875 -0.796875 -0.875 -2.03125q0 -0.734375 0.328125 -1.328125q0.328125 -0.59375 0.859375 -0.953125q0.53125 -0.359375 1.203125 -0.546875q0.5 -0.140625 1.484375 -0.25q2.03125 -0.25 2.984375 -0.578125q0 -0.34375 0 -0.4375q0 -1.015625 -0.46875 -1.4375q-0.640625 -0.5625 -1.90625 -0.5625q-1.171875 0 -1.734375 0.40625q-0.5625 0.40625 -0.828125 1.46875l-1.640625 -0.234375q0.234375 -1.046875 0.734375 -1.6875q0.515625 -0.640625 1.46875 -0.984375q0.96875 -0.359375 2.25 -0.359375q1.265625 0 2.046875 0.296875q0.78125 0.296875 1.15625 0.75q0.375 0.453125 0.515625 1.140625q0.09375 0.421875 0.09375 1.53125l0 2.234375q0 2.328125 0.09375 2.953125q0.109375 0.609375 0.4375 1.171875l-1.75 0q-0.265625 -0.515625 -0.328125 -1.21875zm-0.140625 -3.71875q-0.90625 0.359375 -2.734375 0.625q-1.03125 0.140625 -1.453125 0.328125q-0.421875 0.1875 -0.65625 0.546875q-0.234375 0.359375 -0.234375 0.796875q0 0.671875 0.5 1.125q0.515625 0.4375 1.484375 0.4375q0.96875 0 1.71875 -0.421875q0.75 -0.4375 1.109375 -1.15625q0.265625 -0.578125 0.265625 -1.671875l0 -0.609375zm7.735096 3.4375l0.234375 1.484375q-0.703125 0.140625 -1.2656288 0.140625q-0.90625 0 -1.40625 -0.28125q-0.5 -0.296875 -0.703125 -0.75q-0.203125 -0.46875 -0.203125 -1.984375l0 -5.65625l-1.234375 0l0 -1.3125l1.234375 0l0 -2.4375l1.65625 -1.0l0 3.4375l1.6875038 0l0 1.3125l-1.6875038 0l0 5.75q0 0.71875 0.078125 0.921875q0.09375 0.203125 0.296875 0.328125q0.203125 0.125 0.578125 0.125q0.2656288 0 0.7343788 -0.078125zm1.5426788 -10.1875l0 -1.90625l1.671875 0l0 1.90625l-1.671875 0zm0 11.6875l0 -9.859375l1.671875 0l0 9.859375l-1.671875 0zm6.863571 0l-3.75 -9.859375l1.765625 0l2.125 5.90625q0.34375 0.953125 0.625 1.984375q0.21875 -0.78125 0.625 -1.875l2.1875 -6.015625l1.71875 0l-3.734375 9.859375l-1.5625 0zm13.34375 -3.171875l1.71875 0.21875q-0.40625 1.5 -1.515625 2.34375q-1.09375 0.828125 -2.8125 0.828125q-2.15625 0 -3.421875 -1.328125q-1.265625 -1.328125 -1.265625 -3.734375q0 -2.484375 1.265625 -3.859375q1.28125 -1.375 3.328125 -1.375q1.984375 0 3.234375 1.34375q1.25 1.34375 1.25 3.796875q0 0.140625 -0.015625 0.4375l-7.34375 0q0.09375 1.625 0.921875 2.484375q0.828125 0.859375 2.0625 0.859375q0.90625 0 1.546875 -0.46875q0.65625 -0.484375 1.046875 -1.546875zm-5.484375 -2.703125l5.5 0q-0.109375 -1.234375 -0.625 -1.859375q-0.796875 -0.96875 -2.078125 -0.96875q-1.140625 0 -1.9375 0.78125q-0.78125 0.765625 -0.859375 2.046875zm17.480896 9.875q-1.375 -1.75 -2.328125 -4.078125q-0.953125 -2.34375 -0.953125 -4.84375q0 -2.21875 0.703125 -4.234375q0.84375 -2.34375 2.578125 -4.671875l1.203125 0q-1.125 1.921875 -1.484375 2.75q-0.5625 1.28125 -0.890625 2.671875q-0.40625 1.734375 -0.40625 3.484375q0 4.46875 2.78125 8.921875l-1.203125 0zm3.165802 -4.0l0 -13.59375l5.109375 0q1.546875 0 2.484375 0.40625q0.953125 0.40625 1.484375 1.265625q0.53125 0.859375 0.53125 1.796875q0 0.875 -0.46875 1.65625q-0.46875 0.765625 -1.4375 1.234375q1.234375 0.359375 1.890625 1.234375q0.671875 0.875 0.671875 2.0625q0 0.953125 -0.40625 1.78125q-0.390625 0.8125 -0.984375 1.265625q-0.59375 0.4375 -1.5 0.671875q-0.890625 0.21875 -2.1875 0.21875l-5.1875 0zm1.796875 -7.890625l2.9375 0q1.203125 0 1.71875 -0.15625q0.6875 -0.203125 1.03125 -0.671875q0.359375 -0.46875 0.359375 -1.1875q0 -0.671875 -0.328125 -1.1875q-0.328125 -0.515625 -0.9375 -0.703125q-0.59375 -0.203125 -2.0625 -0.203125l-2.71875 0l0 4.109375zm0 6.28125l3.390625 0q0.875 0 1.21875 -0.0625q0.625 -0.109375 1.046875 -0.359375q0.421875 -0.265625 0.6875 -0.765625q0.265625 -0.5 0.265625 -1.140625q0 -0.765625 -0.390625 -1.328125q-0.390625 -0.5625 -1.078125 -0.78125q-0.6875 -0.234375 -1.984375 -0.234375l-3.15625 0l0 4.671875zm10.490448 1.609375l0 -9.859375l1.5 0l0 1.5q0.578125 -1.046875 1.0625 -1.375q0.484375 -0.34375 1.078125 -0.34375q0.84375 0 1.71875 0.546875l-0.578125 1.546875q-0.609375 -0.359375 -1.234375 -0.359375q-0.546875 0 -0.984375 0.328125q-0.421875 0.328125 -0.609375 0.90625q-0.28125 0.890625 -0.28125 1.953125l0 5.15625l-1.671875 0zm5.603302 -4.921875q0 -2.734375 1.53125 -4.0625q1.265625 -1.09375 3.09375 -1.09375q2.03125 0 3.3125 1.34375q1.296875 1.328125 1.296875 3.671875q0 1.90625 -0.578125 3.0q-0.5625 1.078125 -1.65625 1.6875q-1.078125 0.59375 -2.375 0.59375q-2.0625 0 -3.34375 -1.328125q-1.28125 -1.328125 -1.28125 -3.8125zm1.71875 0q0 1.890625 0.828125 2.828125q0.828125 0.9375 2.078125 0.9375q1.25 0 2.0625 -0.9375q0.828125 -0.953125 0.828125 -2.890625q0 -1.828125 -0.828125 -2.765625q-0.828125 -0.9375 -2.0625 -0.9375q-1.25 0 -2.078125 0.9375q-0.828125 0.9375 -0.828125 2.828125zm11.110092 4.921875l-3.015625 -9.859375l1.71875 0l1.5625 5.6875l0.59375 2.125q0.03125 -0.15625 0.5 -2.03125l1.578125 -5.78125l1.71875 0l1.46875 5.71875l0.484375 1.890625l0.578125 -1.90625l1.6875 -5.703125l1.625 0l-3.078125 9.859375l-1.734375 0l-1.578125 -5.90625l-0.375 -1.671875l-2.0 7.578125l-1.734375 0zm10.972946 -2.9375l1.6562347 -0.265625q0.140625 1.0 0.765625 1.53125q0.640625 0.515625 1.78125 0.515625q1.15625 0 1.703125 -0.46875q0.5625 -0.46875 0.5625 -1.09375q0 -0.5625 -0.484375 -0.890625q-0.34375 -0.21875 -1.703125 -0.5625q-1.84375 -0.46875 -2.5625 -0.796875q-0.703125 -0.34375 -1.0781097 -0.9375q-0.359375 -0.609375 -0.359375 -1.328125q0 -0.65625 0.296875 -1.21875q0.31248474 -0.5625 0.82810974 -0.9375q0.390625 -0.28125 1.0625 -0.484375q0.671875 -0.203125 1.4375 -0.203125q1.171875 0 2.046875 0.34375q0.875 0.328125 1.28125 0.90625q0.421875 0.5625 0.578125 1.515625l-1.625 0.21875q-0.109375 -0.75 -0.65625 -1.171875q-0.53125 -0.4375 -1.5 -0.4375q-1.15625 0 -1.640625 0.390625q-0.484375 0.375 -0.484375 0.875q0 0.328125 0.203125 0.59375q0.203125 0.265625 0.640625 0.4375q0.25 0.09375 1.46875 0.4375q1.765625 0.46875 2.46875 0.765625q0.703125 0.296875 1.09375 0.875q0.40625 0.578125 0.40625 1.4375q0 0.828125 -0.484375 1.578125q-0.484375 0.734375 -1.40625 1.140625q-0.921875 0.390625 -2.078125 0.390625q-1.921875 0 -2.9375 -0.796875q-0.99998474 -0.796875 -1.2812347 -2.359375zm16.749985 -0.234375l1.71875 0.21875q-0.40625 1.5 -1.515625 2.34375q-1.09375 0.828125 -2.8125 0.828125q-2.15625 0 -3.421875 -1.328125q-1.265625 -1.328125 -1.265625 -3.734375q0 -2.484375 1.265625 -3.859375q1.28125 -1.375 3.328125 -1.375q1.984375 0 3.234375 1.34375q1.25 1.34375 1.25 3.796875q0 0.140625 -0.015625 0.4375l-7.34375 0q0.09375 1.625 0.921875 2.484375q0.828125 0.859375 2.0625 0.859375q0.90625 0 1.546875 -0.46875q0.65625 -0.484375 1.046875 -1.546875zm-5.484375 -2.703125l5.5 0q-0.109375 -1.234375 -0.625 -1.859375q-0.796875 -0.96875 -2.078125 -0.96875q-1.140625 0 -1.9375 0.78125q-0.78125 0.765625 -0.859375 2.046875zm9.094482 5.875l0 -9.859375l1.5 0l0 1.5q0.578125 -1.046875 1.0625 -1.375q0.484375 -0.34375 1.078125 -0.34375q0.84375 0 1.71875 0.546875l-0.578125 1.546875q-0.609375 -0.359375 -1.234375 -0.359375q-0.546875 0 -0.984375 0.328125q-0.421875 0.328125 -0.609375 0.90625q-0.28125 0.890625 -0.28125 1.953125l0 5.15625l-1.671875 0zm7.322052 4.0l-1.1875 0q2.765625 -4.453125 2.765625 -8.921875q0 -1.734375 -0.390625 -3.453125q-0.328125 -1.390625 -0.890625 -2.671875q-0.359375 -0.84375 -1.484375 -2.78125l1.1875 0q1.75 2.328125 2.578125 4.671875q0.71875 2.015625 0.71875 4.234375q0 2.5 -0.96875 4.84375q-0.953125 2.328125 -2.328125 4.078125z" fill-rule="nonzero"></path><path fill="#d9d9d9" d="m67.18898 136.57541l0 0c0 -16.792107 13.612694 -30.404808 30.4048 -30.404808l161.52109 0c8.063873 0 15.797455 3.203354 21.49945 8.905365c5.7020264 5.7020035 8.905365 13.435585 8.905365 21.499443l0 121.61557c0 16.792114 -13.612701 30.404816 -30.404816 30.404816l-161.52109 0c-16.792107 0 -30.4048 -13.612701 -30.4048 -30.404816z" fill-rule="nonzero"></path><path stroke="#999999" stroke-width="2.0" stroke-linejoin="round" stroke-linecap="butt" stroke-dasharray="8.0,6.0" d="m67.18898 136.57541l0 0c0 -16.792107 13.612694 -30.404808 30.4048 -30.404808l161.52109 0c8.063873 0 15.797455 3.203354 21.49945 8.905365c5.7020264 5.7020035 8.905365 13.435585 8.905365 21.499443l0 121.61557c0 16.792114 -13.612701 30.404816 -30.404816 30.404816l-161.52109 0c-16.792107 0 -30.4048 -13.612701 -30.4048 -30.404816z" fill-rule="nonzero"></path><path fill="#000000" fill-opacity="0.0" d="m55.833866 106.1706l178.61418 0l0 63.590553l-178.61418 0z" fill-rule="nonzero"></path><path fill="#000000" d="m92.188934 144.88588l0 -13.59375l9.84375 0l0 1.59375l-8.046875 0l0 4.171875l7.53125 0l0 1.59375l-7.53125 0l0 4.625l8.359375 0l0 1.609375l-10.15625 0zm14.927948 0l-3.75 -9.859375l1.765625 0l2.125 5.90625q0.34375 0.953125 0.625 1.984375q0.21875 -0.78125 0.625 -1.875l2.1875 -6.015625l1.71875 0l-3.734375 9.859375l-1.5625 0zm13.34375 -3.171875l1.71875 0.21875q-0.40625 1.5 -1.515625 2.34375q-1.09375 0.828125 -2.8125 0.828125q-2.15625 0 -3.421875 -1.328125q-1.265625 -1.328125 -1.265625 -3.734375q0 -2.484375 1.265625 -3.859375q1.28125 -1.375 3.328125 -1.375q1.984375 0 3.234375 1.34375q1.25 1.34375 1.25 3.796875q0 0.140625 -0.015625 0.4375l-7.34375 0q0.09375 1.625 0.921875 2.484375q0.828125 0.859375 2.0625 0.859375q0.90625 0 1.546875 -0.46875q0.65625 -0.484375 1.046875 -1.546875zm-5.484375 -2.703125l5.5 0q-0.109375 -1.234375 -0.625 -1.859375q-0.796875 -0.96875 -2.078125 -0.96875q-1.140625 0 -1.9375 0.78125q-0.78125 0.765625 -0.859375 2.046875zm9.110092 5.875l0 -9.859375l1.5 0l0 1.40625q1.09375 -1.625 3.140625 -1.625q0.890625 0 1.640625 0.328125q0.75 0.3125 1.109375 0.84375q0.375 0.515625 0.53125 1.21875q0.09375 0.46875 0.09375 1.625l0 6.0625l-1.671875 0l0 -6.0q0 -1.015625 -0.203125 -1.515625q-0.1875 -0.515625 -0.6875 -0.8125q-0.5 -0.296875 -1.171875 -0.296875q-1.0625 0 -1.84375 0.671875q-0.765625 0.671875 -0.765625 2.578125l0 5.375l-1.671875 0zm14.031967 -1.5l0.234375 1.484375q-0.703125 0.140625 -1.265625 0.140625q-0.90625 0 -1.40625 -0.28125q-0.5 -0.296875 -0.703125 -0.75q-0.203125 -0.46875 -0.203125 -1.984375l0 -5.65625l-1.234375 0l0 -1.3125l1.234375 0l0 -2.4375l1.65625 -1.0l0 3.4375l1.6875 0l0 1.3125l-1.6875 0l0 5.75q0 0.71875 0.078125 0.921875q0.09375 0.203125 0.296875 0.328125q0.203125 0.125 0.578125 0.125q0.265625 0 0.734375 -0.078125zm17.225983 0.046875q1.265625 0.859375 2.3125 1.265625l-0.53125 1.25q-1.453125 -0.53125 -2.921875 -1.671875q-1.5 0.84375 -3.328125 0.84375q-1.84375 0 -3.359375 -0.890625q-1.5 -0.890625 -2.3125 -2.5q-0.8125 -1.625 -0.8125 -3.640625q0 -2.015625 0.8125 -3.65625q0.828125 -1.65625 2.328125 -2.515625q1.515625 -0.875 3.375 -0.875q1.890625 0 3.390625 0.90625q1.515625 0.890625 2.3125 2.5q0.796875 1.609375 0.796875 3.625q0 1.6875 -0.515625 3.03125q-0.515625 1.328125 -1.546875 2.328125zm-3.953125 -2.296875q1.5625 0.421875 2.5625 1.296875q1.59375 -1.453125 1.59375 -4.359375q0 -1.65625 -0.5625 -2.875q-0.5625 -1.234375 -1.640625 -1.921875q-1.078125 -0.6875 -2.421875 -0.6875q-2.015625 0 -3.34375 1.390625q-1.328125 1.375 -1.328125 4.109375q0 2.65625 1.3125 4.078125q1.3125 1.40625 3.359375 1.40625q0.953125 0 1.8125 -0.359375q-0.84375 -0.546875 -1.78125 -0.78125l0.4375 -1.296875zm14.402054 3.75l0 -1.453125q-1.140625 1.671875 -3.125 1.671875q-0.859375 0 -1.625 -0.328125q-0.75 -0.34375 -1.125 -0.84375q-0.359375 -0.5 -0.515625 -1.234375q-0.09375 -0.5 -0.09375 -1.5625l0 -6.109375l1.671875 0l0 5.46875q0 1.3125 0.09375 1.765625q0.15625 0.65625 0.671875 1.03125q0.515625 0.375 1.265625 0.375q0.75 0 1.40625 -0.375q0.65625 -0.390625 0.921875 -1.046875q0.28125 -0.671875 0.28125 -1.9375l0 -5.28125l1.671875 0l0 9.859375l-1.5 0zm10.672592 -3.171875l1.71875 0.21875q-0.40625 1.5 -1.515625 2.34375q-1.09375 0.828125 -2.8125 0.828125q-2.15625 0 -3.421875 -1.328125q-1.265625 -1.328125 -1.265625 -3.734375q0 -2.484375 1.265625 -3.859375q1.28125 -1.375 3.328125 -1.375q1.984375 0 3.234375 1.34375q1.25 1.34375 1.25 3.796875q0 0.140625 -0.015625 0.4375l-7.34375 0q0.09375 1.625 0.921875 2.484375q0.828125 0.859375 2.0625 0.859375q0.90625 0 1.546875 -0.46875q0.65625 -0.484375 1.046875 -1.546875zm-5.484375 -2.703125l5.5 0q-0.109375 -1.234375 -0.625 -1.859375q-0.796875 -0.96875 -2.078125 -0.96875q-1.140625 0 -1.9375 0.78125q-0.78125 0.765625 -0.859375 2.046875zm15.563202 5.875l0 -1.453125q-1.140625 1.671875 -3.1249847 1.671875q-0.859375 0 -1.625 -0.328125q-0.75 -0.34375 -1.125 -0.84375q-0.359375 -0.5 -0.515625 -1.234375q-0.09375 -0.5 -0.09375 -1.5625l0 -6.109375l1.671875 0l0 5.46875q0 1.3125 0.09375 1.765625q0.15625 0.65625 0.671875 1.03125q0.515625 0.375 1.265625 0.375q0.74998474 0 1.4062347 -0.375q0.65625 -0.390625 0.921875 -1.046875q0.28125 -0.671875 0.28125 -1.9375l0 -5.28125l1.671875 0l0 9.859375l-1.5 0zm10.672607 -3.171875l1.71875 0.21875q-0.40625 1.5 -1.515625 2.34375q-1.09375 0.828125 -2.8125 0.828125q-2.15625 0 -3.421875 -1.328125q-1.265625 -1.328125 -1.265625 -3.734375q0 -2.484375 1.265625 -3.859375q1.28125 -1.375 3.328125 -1.375q1.984375 0 3.234375 1.34375q1.25 1.34375 1.25 3.796875q0 0.140625 -0.015625 0.4375l-7.34375 0q0.09375 1.625 0.921875 2.484375q0.828125 0.859375 2.0625 0.859375q0.90625 0 1.546875 -0.46875q0.65625 -0.484375 1.046875 -1.546875zm-5.484375 -2.703125l5.5 0q-0.109375 -1.234375 -0.625 -1.859375q-0.796875 -0.96875 -2.078125 -0.96875q-1.140625 0 -1.9375 0.78125q-0.78125 0.765625 -0.859375 2.046875z" fill-rule="nonzero"></path><path fill="#000000" fill-opacity="0.0" d="m89.04646 165.58792l178.61418 0l0 63.59056l-178.61418 0z" fill-rule="nonzero"></path><path fill="#000000" d="m159.98997 208.30319q-1.375 -1.75 -2.328125 -4.078125q-0.953125 -2.34375 -0.953125 -4.84375q0 -2.21875 0.703125 -4.234375q0.84375 -2.34375 2.578125 -4.671875l1.203125 0q-1.125 1.921875 -1.484375 2.75q-0.5625 1.28125 -0.890625 2.671875q-0.40625 1.734375 -0.40625 3.484375q0 4.46875 2.78125 8.921875l-1.203125 0zm4.853302 -4.0l-3.015625 -9.859375l1.71875 0l1.5625 5.6875l0.59375 2.125q0.03125 -0.15625 0.5 -2.03125l1.578125 -5.78125l1.71875 0l1.46875 5.71875l0.484375 1.890625l0.578125 -1.90625l1.6875 -5.703125l1.625 0l-3.078125 9.859375l-1.734375 0l-1.578125 -5.90625l-0.375 -1.671875l-2.0 7.578125l-1.734375 0zm18.082321 -1.21875q-0.9375 0.796875 -1.796875 1.125q-0.859375 0.3125 -1.84375 0.3125q-1.609375 0 -2.484375 -0.78125q-0.875 -0.796875 -0.875 -2.03125q0 -0.734375 0.328125 -1.328125q0.328125 -0.59375 0.859375 -0.953125q0.53125 -0.359375 1.203125 -0.546875q0.5 -0.140625 1.484375 -0.25q2.03125 -0.25 2.984375 -0.578125q0 -0.34375 0 -0.4375q0 -1.015625 -0.46875 -1.4375q-0.640625 -0.5625 -1.90625 -0.5625q-1.171875 0 -1.734375 0.40625q-0.5625 0.40625 -0.828125 1.46875l-1.640625 -0.234375q0.234375 -1.046875 0.734375 -1.6875q0.515625 -0.640625 1.46875 -0.984375q0.96875 -0.359375 2.25 -0.359375q1.265625 0 2.046875 0.296875q0.78125 0.296875 1.15625 0.75q0.375 0.453125 0.515625 1.140625q0.09375 0.421875 0.09375 1.53125l0 2.234375q0 2.328125 0.09375 2.953125q0.109375 0.609375 0.4375 1.171875l-1.75 0q-0.265625 -0.515625 -0.328125 -1.21875zm-0.140625 -3.71875q-0.90625 0.359375 -2.734375 0.625q-1.03125 0.140625 -1.453125 0.328125q-0.421875 0.1875 -0.65625 0.546875q-0.234375 0.359375 -0.234375 0.796875q0 0.671875 0.5 1.125q0.515625 0.4375 1.484375 0.4375q0.96875 0 1.71875 -0.421875q0.75 -0.4375 1.109375 -1.15625q0.265625 -0.578125 0.265625 -1.671875l0 -0.609375zm4.094467 -6.75l0 -1.90625l1.671875 0l0 1.90625l-1.671875 0zm0 11.6875l0 -9.859375l1.671875 0l0 9.859375l-1.671875 0zm7.785446 -1.5l0.234375 1.484375q-0.703125 0.140625 -1.265625 0.140625q-0.90625 0 -1.40625 -0.28125q-0.5 -0.296875 -0.703125 -0.75q-0.203125 -0.46875 -0.203125 -1.984375l0 -5.65625l-1.234375 0l0 -1.3125l1.234375 0l0 -2.4375l1.65625 -1.0l0 3.4375l1.6875 0l0 1.3125l-1.6875 0l0 5.75q0 0.71875 0.078125 0.921875q0.09375 0.203125 0.296875 0.328125q0.203125 0.125 0.578125 0.125q0.265625 0 0.734375 -0.078125zm2.6208038 5.5l-1.1875 0q2.765625 -4.453125 2.765625 -8.921875q0 -1.734375 -0.390625 -3.453125q-0.328125 -1.390625 -0.890625 -2.671875q-0.359375 -0.84375 -1.484375 -2.78125l1.1875 0q1.75 2.328125 2.578125 4.671875q0.71875 2.015625 0.71875 4.234375q0 2.5 -0.96875 4.84375q-0.953125 2.328125 -2.328125 4.078125z" fill-rule="nonzero"></path><path fill="#000000" fill-opacity="0.0" d="m465.44278 17.055119l178.61417 0l0 63.59055l-178.61417 0z" fill-rule="nonzero"></path><path fill="#000000" d="m511.7488 51.911015l1.6249695 -0.21875q0.0625 1.546875 0.578125 2.125q0.53125 0.578125 1.4375 0.578125q0.6875 0 1.171875 -0.3125q0.5 -0.3125 0.671875 -0.84375q0.1875 -0.53125 0.1875 -1.703125l0 -9.359375l1.8125 0l0 9.265625q0 1.703125 -0.421875 2.640625q-0.40625 0.9375 -1.3125 1.4375q-0.890625 0.484375 -2.09375 0.484375q-1.796875 0 -2.75 -1.03125q-0.9374695 -1.03125 -0.9062195 -3.0625zm16.46872 2.640625q-0.9375 0.796875 -1.796875 1.125q-0.859375 0.3125 -1.84375 0.3125q-1.609375 0 -2.484375 -0.78125q-0.875 -0.796875 -0.875 -2.03125q0 -0.734375 0.328125 -1.328125q0.328125 -0.59375 0.859375 -0.953125q0.53125 -0.359375 1.203125 -0.546875q0.5 -0.140625 1.484375 -0.25q2.03125 -0.25 2.984375 -0.578125q0 -0.34375 0 -0.4375q0 -1.015625 -0.46875 -1.4375q-0.640625 -0.5625 -1.90625 -0.5625q-1.171875 0 -1.734375 0.40625q-0.5625 0.40625 -0.828125 1.46875l-1.640625 -0.234375q0.234375 -1.046875 0.734375 -1.6875q0.515625 -0.640625 1.46875 -0.984375q0.96875 -0.359375 2.25 -0.359375q1.265625 0 2.046875 0.296875q0.78125 0.296875 1.15625 0.75q0.375 0.453125 0.515625 1.140625q0.09375 0.421875 0.09375 1.53125l0 2.234375q0 2.328125 0.09375 2.953125q0.109375 0.609375 0.4375 1.171875l-1.75 0q-0.265625 -0.515625 -0.328125 -1.21875zm-0.140625 -3.71875q-0.90625 0.359375 -2.734375 0.625q-1.03125 0.140625 -1.453125 0.328125q-0.421875 0.1875 -0.65625 0.546875q-0.234375 0.359375 -0.234375 0.796875q0 0.671875 0.5 1.125q0.515625 0.4375 1.484375 0.4375q0.96875 0 1.71875 -0.421875q0.75 -0.4375 1.109375 -1.15625q0.265625 -0.578125 0.265625 -1.671875l0 -0.609375zm6.8132324 4.9375l-3.75 -9.859375l1.765625 0l2.125 5.90625q0.34375 0.953125 0.625 1.984375q0.21875 -0.78125 0.625 -1.875l2.1875 -6.015625l1.71875 0l-3.734375 9.859375l-1.5625 0zm13.03125 -1.21875q-0.9375 0.796875 -1.796875 1.125q-0.859375 0.3125 -1.84375 0.3125q-1.609375 0 -2.484375 -0.78125q-0.875 -0.796875 -0.875 -2.03125q0 -0.734375 0.328125 -1.328125q0.328125 -0.59375 0.859375 -0.953125q0.53125 -0.359375 1.203125 -0.546875q0.5 -0.140625 1.484375 -0.25q2.03125 -0.25 2.984375 -0.578125q0 -0.34375 0 -0.4375q0 -1.015625 -0.46875 -1.4375q-0.640625 -0.5625 -1.90625 -0.5625q-1.171875 0 -1.734375 0.40625q-0.5625 0.40625 -0.828125 1.46875l-1.640625 -0.234375q0.234375 -1.046875 0.734375 -1.6875q0.515625 -0.640625 1.46875 -0.984375q0.96875 -0.359375 2.25 -0.359375q1.265625 0 2.046875 0.296875q0.78125 0.296875 1.15625 0.75q0.375 0.453125 0.515625 1.140625q0.09375 0.421875 0.09375 1.53125l0 2.234375q0 2.328125 0.09375 2.953125q0.109375 0.609375 0.4375 1.171875l-1.75 0q-0.265625 -0.515625 -0.328125 -1.21875zm-0.140625 -3.71875q-0.90625 0.359375 -2.734375 0.625q-1.03125 0.140625 -1.453125 0.328125q-0.421875 0.1875 -0.65625 0.546875q-0.234375 0.359375 -0.234375 0.796875q0 0.671875 0.5 1.125q0.515625 0.4375 1.484375 0.4375q0.96875 0 1.71875 -0.421875q0.75 -0.4375 1.109375 -1.15625q0.265625 -0.578125 0.265625 -1.671875l0 -0.609375zm3.6882324 0.5625l1.6875 -0.140625q0.125 1.015625 0.5625 1.671875q0.4375 0.65625 1.359375 1.0625q0.9375 0.40625 2.09375 0.40625q1.03125 0 1.8125 -0.3125q0.796875 -0.3125 1.1875 -0.84375q0.390625 -0.53125 0.390625 -1.15625q0 -0.640625 -0.375 -1.109375q-0.375 -0.484375 -1.234375 -0.8125q-0.546875 -0.21875 -2.421875 -0.65625q-1.875 -0.453125 -2.625 -0.859375q-0.96875 -0.515625 -1.453125 -1.265625q-0.46875 -0.75 -0.46875 -1.6875q0 -1.03125 0.578125 -1.921875q0.59375 -0.90625 1.703125 -1.359375q1.125 -0.46875 2.5 -0.46875q1.515625 0 2.671875 0.484375q1.15625 0.484375 1.765625 1.4375q0.625 0.9375 0.671875 2.140625l-1.71875 0.125q-0.140625 -1.28125 -0.953125 -1.9375q-0.796875 -0.671875 -2.359375 -0.671875q-1.625 0 -2.375 0.609375q-0.75 0.59375 -0.75 1.4375q0 0.734375 0.53125 1.203125q0.515625 0.46875 2.703125 0.96875q2.203125 0.5 3.015625 0.875q1.1875 0.546875 1.75 1.390625q0.578125 0.828125 0.578125 1.921875q0 1.09375 -0.625 2.0625q-0.625 0.953125 -1.796875 1.484375q-1.15625 0.53125 -2.609375 0.53125q-1.84375 0 -3.09375 -0.53125q-1.25 -0.546875 -1.96875 -1.625q-0.703125 -1.078125 -0.734375 -2.453125zm19.271667 0.765625l1.640625 0.21875q-0.265625 1.6875 -1.375 2.65625q-1.109375 0.953125 -2.734375 0.953125q-2.015625 0 -3.25 -1.3125q-1.21875 -1.328125 -1.21875 -3.796875q0 -1.59375 0.515625 -2.78125q0.53125 -1.203125 1.609375 -1.796875q1.09375 -0.609375 2.359375 -0.609375q1.609375 0 2.625 0.8125q1.015625 0.8125 1.3125 2.3125l-1.625 0.25q-0.234375 -1.0 -0.828125 -1.5q-0.59375 -0.5 -1.421875 -0.5q-1.265625 0 -2.0625 0.90625q-0.78125 0.90625 -0.78125 2.859375q0 1.984375 0.765625 2.890625q0.765625 0.890625 1.984375 0.890625q0.984375 0 1.640625 -0.59375q0.65625 -0.609375 0.84375 -1.859375zm2.875 3.609375l0 -9.859375l1.5 0l0 1.5q0.578125 -1.046875 1.0625 -1.375q0.484375 -0.34375 1.078125 -0.34375q0.84375 0 1.71875 0.546875l-0.578125 1.546875q-0.609375 -0.359375 -1.234375 -0.359375q-0.546875 0 -0.984375 0.328125q-0.421875 0.328125 -0.609375 0.90625q-0.28125 0.890625 -0.28125 1.953125l0 5.15625l-1.671875 0zm6.2439575 -11.6875l0 -1.90625l1.671875 0l0 1.90625l-1.671875 0zm0 11.6875l0 -9.859375l1.671875 0l0 9.859375l-1.671875 0zm4.1292114 3.78125l0 -13.640625l1.53125 0l0 1.28125q0.53125 -0.75 1.203125 -1.125q0.6875 -0.375 1.640625 -0.375q1.265625 0 2.234375 0.65625q0.96875 0.640625 1.453125 1.828125q0.5 1.1875 0.5 2.59375q0 1.515625 -0.546875 2.734375q-0.546875 1.203125 -1.578125 1.84375q-1.03125 0.640625 -2.171875 0.640625q-0.84375 0 -1.515625 -0.34375q-0.65625 -0.359375 -1.078125 -0.890625l0 4.796875l-1.671875 0zm1.515625 -8.65625q0 1.90625 0.765625 2.8125q0.78125 0.90625 1.875 0.90625q1.109375 0 1.890625 -0.9375q0.796875 -0.9375 0.796875 -2.921875q0 -1.875 -0.78125 -2.8125q-0.765625 -0.9375 -1.84375 -0.9375q-1.0625 0 -1.890625 1.0q-0.8125 1.0 -0.8125 2.890625zm12.516296 3.375l0.234375 1.484375q-0.703125 0.140625 -1.265625 0.140625q-0.90625 0 -1.40625 -0.28125q-0.5 -0.296875 -0.703125 -0.75q-0.203125 -0.46875 -0.203125 -1.984375l0 -5.65625l-1.234375 0l0 -1.3125l1.234375 0l0 -2.4375l1.65625 -1.0l0 3.4375l1.6875 0l0 1.3125l-1.6875 0l0 5.75q0 0.71875 0.078125 0.921875q0.09375 0.203125 0.296875 0.328125q0.203125 0.125 0.578125 0.125q0.265625 0 0.734375 -0.078125z" fill-rule="nonzero"></path><path fill="#000000" fill-opacity="0.0" d="m267.66064 197.38321l263.1496 -0.5669403" fill-rule="nonzero"></path><path stroke="#000000" stroke-width="2.0" stroke-linejoin="round" stroke-linecap="butt" d="m267.66064 197.38321l251.14966 -0.54107666" fill-rule="evenodd"></path><path fill="#000000" stroke="#000000" stroke-width="2.0" stroke-linecap="butt" d="m518.8174 200.14558l9.069092 -3.3230133l-9.083313 -3.283905z" fill-rule="evenodd"></path><path fill="#f9cb9c" d="m603.67194 157.56271l0 0c0 -28.383087 23.009033 -51.392113 51.39209 -51.392113l205.56226 0l0 0c13.630005 0 26.701782 5.4145126 36.33972 15.052399c9.637878 9.637886 15.052368 22.709679 15.052368 36.339714l0 387.4205c0 28.383057 -23.009033 51.39209 -51.39209 51.39209l-205.56226 0c-28.383057 0 -51.39209 -23.009033 -51.39209 -51.39209z" fill-rule="nonzero"></path><path stroke="#999999" stroke-width="2.0" stroke-linejoin="round" stroke-linecap="butt" stroke-dasharray="8.0,6.0" d="m603.67194 157.56271l0 0c0 -28.383087 23.009033 -51.392113 51.39209 -51.392113l205.56226 0l0 0c13.630005 0 26.701782 5.4145126 36.33972 15.052399c9.637878 9.637886 15.052368 22.709679 15.052368 36.339714l0 387.4205c0 28.383057 -23.009033 51.39209 -51.39209 51.39209l-205.56226 0c-28.383057 0 -51.39209 -23.009033 -51.39209 -51.39209z" fill-rule="nonzero"></path><path fill="#000000" fill-opacity="0.0" d="m530.81104 165.30446l126.80316 0l0 63.59056l-126.80316 0z" fill-rule="nonzero"></path><path fill="#000000" d="m557.46686 205.97285l0 -1.671875q-1.25 -0.15625 -2.046875 -0.546875q-0.78125 -0.40625 -1.359375 -1.3125q-0.5625 -0.90625 -0.65625 -2.203125l1.6875 -0.3125q0.1875 1.34375 0.6875 1.984375q0.703125 0.890625 1.6875 0.984375l0 -5.3125q-1.03125 -0.203125 -2.109375 -0.796875q-0.796875 -0.453125 -1.234375 -1.234375q-0.421875 -0.796875 -0.421875 -1.796875q0 -1.78125 1.265625 -2.875q0.84375 -0.75 2.5 -0.921875l0 -0.796875l0.984375 0l0 0.796875q1.453125 0.140625 2.3125 0.859375q1.09375 0.90625 1.3125 2.5l-1.734375 0.25q-0.140625 -0.984375 -0.609375 -1.5q-0.46875 -0.53125 -1.28125 -0.6875l0 4.8125q1.265625 0.3125 1.671875 0.484375q0.78125 0.34375 1.265625 0.84375q0.484375 0.484375 0.75 1.171875q0.265625 0.671875 0.265625 1.453125q0 1.734375 -1.109375 2.90625q-1.09375 1.15625 -2.84375 1.234375l0 1.6875l-0.984375 0zm0 -14.609375q-0.984375 0.140625 -1.546875 0.78125q-0.546875 0.625 -0.546875 1.484375q0 0.859375 0.46875 1.4375q0.484375 0.5625 1.625 0.90625l0 -4.609375zm0.984375 11.53125q0.96875 -0.125 1.59375 -0.84375q0.640625 -0.71875 0.640625 -1.78125q0 -0.921875 -0.453125 -1.46875q-0.4375 -0.546875 -1.78125 -0.984375l0 5.078125zm12.344482 -0.09375q-0.9375 0.796875 -1.796875 1.125q-0.859375 0.3125 -1.84375 0.3125q-1.609375 0 -2.484375 -0.78125q-0.875 -0.796875 -0.875 -2.03125q0 -0.734375 0.328125 -1.328125q0.328125 -0.59375 0.859375 -0.953125q0.53125 -0.359375 1.203125 -0.546875q0.5 -0.140625 1.484375 -0.25q2.03125 -0.25 2.984375 -0.578125q0 -0.34375 0 -0.4375q0 -1.015625 -0.46875 -1.4375q-0.640625 -0.5625 -1.90625 -0.5625q-1.171875 0 -1.734375 0.40625q-0.5625 0.40625 -0.828125 1.46875l-1.640625 -0.234375q0.234375 -1.046875 0.734375 -1.6875q0.515625 -0.640625 1.46875 -0.984375q0.96875 -0.359375 2.25 -0.359375q1.265625 0 2.046875 0.296875q0.78125 0.296875 1.15625 0.75q0.375 0.453125 0.515625 1.140625q0.09375 0.421875 0.09375 1.53125l0 2.234375q0 2.328125 0.09375 2.953125q0.109375 0.609375 0.4375 1.171875l-1.75 0q-0.265625 -0.515625 -0.328125 -1.21875zm-0.140625 -3.71875q-0.90625 0.359375 -2.734375 0.625q-1.03125 0.140625 -1.453125 0.328125q-0.421875 0.1875 -0.65625 0.546875q-0.234375 0.359375 -0.234375 0.796875q0 0.671875 0.5 1.125q0.515625 0.4375 1.484375 0.4375q0.96875 0 1.71875 -0.421875q0.75 -0.4375 1.109375 -1.15625q0.265625 -0.578125 0.265625 -1.671875l0 -0.609375zm4.0788574 8.71875l0 -13.640625l1.53125 0l0 1.28125q0.53125 -0.75 1.203125 -1.125q0.6875 -0.375 1.640625 -0.375q1.265625 0 2.234375 0.65625q0.96875 0.640625 1.453125 1.828125q0.5 1.1875 0.5 2.59375q0 1.515625 -0.546875 2.734375q-0.546875 1.203125 -1.578125 1.84375q-1.03125 0.640625 -2.171875 0.640625q-0.84375 0 -1.515625 -0.34375q-0.65625 -0.359375 -1.078125 -0.890625l0 4.796875l-1.671875 0zm1.515625 -8.65625q0 1.90625 0.765625 2.8125q0.78125 0.90625 1.875 0.90625q1.109375 0 1.890625 -0.9375q0.796875 -0.9375 0.796875 -2.921875q0 -1.875 -0.78125 -2.8125q-0.765625 -0.9375 -1.84375 -0.9375q-1.0625 0 -1.890625 1.0q-0.8125 1.0 -0.8125 2.890625zm8.860107 8.65625l0 -13.640625l1.53125 0l0 1.28125q0.53125 -0.75 1.203125 -1.125q0.6875 -0.375 1.640625 -0.375q1.265625 0 2.234375 0.65625q0.96875 0.640625 1.453125 1.828125q0.5 1.1875 0.5 2.59375q0 1.515625 -0.546875 2.734375q-0.546875 1.203125 -1.578125 1.84375q-1.03125 0.640625 -2.171875 0.640625q-0.84375 0 -1.515625 -0.34375q-0.65625 -0.359375 -1.078125 -0.890625l0 4.796875l-1.671875 0zm1.515625 -8.65625q0 1.90625 0.765625 2.8125q0.78125 0.90625 1.875 0.90625q1.109375 0 1.890625 -0.9375q0.796875 -0.9375 0.796875 -2.921875q0 -1.875 -0.78125 -2.8125q-0.765625 -0.9375 -1.84375 -0.9375q-1.0625 0 -1.890625 1.0q-0.8125 1.0 -0.8125 2.890625zm8.828796 4.875l0 -13.59375l1.671875 0l0 13.59375l-1.671875 0zm4.0979614 3.796875l-0.171875 -1.5625q0.546875 0.140625 0.953125 0.140625q0.546875 0 0.875 -0.1875q0.34375 -0.1875 0.5625 -0.515625q0.15625 -0.25 0.5 -1.25q0.046875 -0.140625 0.15625 -0.40625l-3.734375 -9.875l1.796875 0l2.046875 5.71875q0.40625 1.078125 0.71875 2.28125q0.28125 -1.15625 0.6875 -2.25l2.09375 -5.75l1.671875 0l-3.75 10.03125q-0.59375 1.625 -0.9375 2.234375q-0.4375 0.828125 -1.015625 1.203125q-0.578125 0.390625 -1.375 0.390625q-0.484375 0 -1.078125 -0.203125zm12.59375 0.203125q-1.375 -1.75 -2.328125 -4.078125q-0.953125 -2.34375 -0.953125 -4.84375q0 -2.21875 0.703125 -4.234375q0.84375 -2.34375 2.578125 -4.671875l1.203125 0q-1.125 1.921875 -1.484375 2.75q-0.5625 1.28125 -0.890625 2.671875q-0.40625 1.734375 -0.40625 3.484375q0 4.46875 2.78125 8.921875l-1.203125 0zm3.4314575 -4.0l0 -8.546875l-1.484375 0l0 -1.3125l1.484375 0l0 -1.046875q0 -0.984375 0.171875 -1.46875q0.234375 -0.65625 0.84375 -1.046875q0.609375 -0.40625 1.703125 -0.40625q0.703125 0 1.5625 0.15625l-0.25 1.46875q-0.515625 -0.09375 -0.984375 -0.09375q-0.765625 0 -1.078125 0.328125q-0.3125 0.3125 -0.3125 1.203125l0 0.90625l1.921875 0l0 1.3125l-1.921875 0l0 8.546875l-1.65625 0zm4.7770386 0l0 -9.859375l1.5 0l0 1.40625q1.09375 -1.625 3.140625 -1.625q0.890625 0 1.640625 0.328125q0.75 0.3125 1.109375 0.84375q0.375 0.515625 0.53125 1.21875q0.09375 0.46875 0.09375 1.625l0 6.0625l-1.671875 0l0 -6.0q0 -1.015625 -0.203125 -1.515625q-0.1875 -0.515625 -0.6875 -0.8125q-0.5 -0.296875 -1.171875 -0.296875q-1.0625 0 -1.84375 0.671875q-0.765625 0.671875 -0.765625 2.578125l0 5.375l-1.671875 0zm11.469482 4.0l-1.1875 0q2.765625 -4.453125 2.765625 -8.921875q0 -1.734375 -0.390625 -3.453125q-0.328125 -1.390625 -0.890625 -2.671875q-0.359375 -0.84375 -1.484375 -2.78125l1.1875 0q1.75 2.328125 2.578125 4.671875q0.71875 2.015625 0.71875 4.234375q0 2.5 -0.96875 4.84375q-0.953125 2.328125 -2.328125 4.078125z" fill-rule="nonzero"></path><path fill="#000000" fill-opacity="0.0" d="m603.67175 106.1706l135.30707 0l0 63.590553l-135.30707 0z" fill-rule="nonzero"></path><path fill="#000000" d="m639.142 144.88588l5.234375 -13.59375l1.9375 0l5.5625 13.59375l-2.046875 0l-1.59375 -4.125l-5.6875 0l-1.484375 4.125l-1.921875 0zm3.921875 -5.578125l4.609375 0l-1.40625 -3.78125q-0.65625 -1.703125 -0.96875 -2.8125q-0.265625 1.3125 -0.734375 2.59375l-1.5 4.0zm9.8029785 5.578125l0 -9.859375l1.5 0l0 1.40625q1.09375 -1.625 3.140625 -1.625q0.890625 0 1.640625 0.328125q0.75 0.3125 1.109375 0.84375q0.375 0.515625 0.53125 1.21875q0.09375 0.46875 0.09375 1.625l0 6.0625l-1.671875 0l0 -6.0q0 -1.015625 -0.203125 -1.515625q-0.1875 -0.515625 -0.6875 -0.8125q-0.5 -0.296875 -1.171875 -0.296875q-1.0625 0 -1.84375 0.671875q-0.765625 0.671875 -0.765625 2.578125l0 5.375l-1.671875 0zm10.078857 0.8125l1.609375 0.25q0.109375 0.75 0.578125 1.09375q0.609375 0.453125 1.6875 0.453125q1.171875 0 1.796875 -0.46875q0.625 -0.453125 0.859375 -1.28125q0.125 -0.515625 0.109375 -2.15625q-1.09375 1.296875 -2.71875 1.296875q-2.03125 0 -3.15625 -1.46875q-1.109375 -1.46875 -1.109375 -3.515625q0 -1.40625 0.515625 -2.59375q0.515625 -1.203125 1.484375 -1.84375q0.96875 -0.65625 2.265625 -0.65625q1.75 0 2.875 1.40625l0 -1.1875l1.546875 0l0 8.515625q0 2.3125 -0.46875 3.265625q-0.46875 0.96875 -1.484375 1.515625q-1.015625 0.5625 -2.5 0.5625q-1.765625 0 -2.859375 -0.796875q-1.078125 -0.796875 -1.03125 -2.390625zm1.375 -5.921875q0 1.953125 0.765625 2.84375q0.78125 0.890625 1.9375 0.890625q1.140625 0 1.921875 -0.890625q0.78125 -0.890625 0.78125 -2.78125q0 -1.8125 -0.8125 -2.71875q-0.796875 -0.921875 -1.921875 -0.921875q-1.109375 0 -1.890625 0.90625q-0.78125 0.890625 -0.78125 2.671875zm15.750671 5.109375l0 -1.453125q-1.140625 1.671875 -3.125 1.671875q-0.859375 0 -1.625 -0.328125q-0.75 -0.34375 -1.125 -0.84375q-0.359375 -0.5 -0.515625 -1.234375q-0.09375 -0.5 -0.09375 -1.5625l0 -6.109375l1.671875 0l0 5.46875q0 1.3125 0.09375 1.765625q0.15625 0.65625 0.671875 1.03125q0.515625 0.375 1.265625 0.375q0.75 0 1.40625 -0.375q0.65625 -0.390625 0.921875 -1.046875q0.28125 -0.671875 0.28125 -1.9375l0 -5.28125l1.671875 0l0 9.859375l-1.5 0zm3.8913574 0l0 -13.59375l1.671875 0l0 13.59375l-1.671875 0zm10.613586 -1.21875q-0.9375 0.796875 -1.796875 1.125q-0.859375 0.3125 -1.84375 0.3125q-1.609375 0 -2.484375 -0.78125q-0.875 -0.796875 -0.875 -2.03125q0 -0.734375 0.328125 -1.328125q0.328125 -0.59375 0.859375 -0.953125q0.53125 -0.359375 1.203125 -0.546875q0.5 -0.140625 1.484375 -0.25q2.03125 -0.25 2.984375 -0.578125q0 -0.34375 0 -0.4375q0 -1.015625 -0.46875 -1.4375q-0.640625 -0.5625 -1.90625 -0.5625q-1.171875 0 -1.734375 0.40625q-0.5625 0.40625 -0.828125 1.46875l-1.640625 -0.234375q0.234375 -1.046875 0.734375 -1.6875q0.515625 -0.640625 1.46875 -0.984375q0.96875 -0.359375 2.25 -0.359375q1.265625 0 2.046875 0.296875q0.78125 0.296875 1.15625 0.75q0.375 0.453125 0.515625 1.140625q0.09375 0.421875 0.09375 1.53125l0 2.234375q0 2.328125 0.09375 2.953125q0.109375 0.609375 0.4375 1.171875l-1.75 0q-0.265625 -0.515625 -0.328125 -1.21875zm-0.140625 -3.71875q-0.90625 0.359375 -2.734375 0.625q-1.03125 0.140625 -1.453125 0.328125q-0.421875 0.1875 -0.65625 0.546875q-0.234375 0.359375 -0.234375 0.796875q0 0.671875 0.5 1.125q0.515625 0.4375 1.484375 0.4375q0.96875 0 1.71875 -0.421875q0.75 -0.4375 1.109375 -1.15625q0.265625 -0.578125 0.265625 -1.671875l0 -0.609375zm4.0632324 4.9375l0 -9.859375l1.5 0l0 1.5q0.578125 -1.046875 1.0625 -1.375q0.484375 -0.34375 1.078125 -0.34375q0.84375 0 1.71875 0.546875l-0.578125 1.546875q-0.609375 -0.359375 -1.234375 -0.359375q-0.546875 0 -0.984375 0.328125q-0.421875 0.328125 -0.609375 0.90625q-0.28125 0.890625 -0.28125 1.953125l0 5.15625l-1.671875 0z" fill-rule="nonzero"></path><path fill="#000000" fill-opacity="0.0" d="m706.7192 165.58792l75.77948 0l0 63.59056l-75.77948 0z" fill-rule="nonzero"></path><path fill="#000000" d="m732.273 204.30319l0 -8.546875l-1.484375 0l0 -1.3125l1.484375 0l0 -1.046875q0 -0.984375 0.171875 -1.46875q0.234375 -0.65625 0.84375 -1.046875q0.609375 -0.40625 1.703125 -0.40625q0.703125 0 1.5625 0.15625l-0.25 1.46875q-0.515625 -0.09375 -0.984375 -0.09375q-0.765625 0 -1.078125 0.328125q-0.3125 0.3125 -0.3125 1.203125l0 0.90625l1.921875 0l0 1.3125l-1.921875 0l0 8.546875l-1.65625 0zm4.7770386 0l0 -9.859375l1.5 0l0 1.40625q1.09375 -1.625 3.140625 -1.625q0.890625 0 1.640625 0.328125q0.75 0.3125 1.109375 0.84375q0.375 0.515625 0.53125 1.21875q0.09375 0.46875 0.09375 1.625l0 6.0625l-1.671875 0l0 -6.0q0 -1.015625 -0.203125 -1.515625q-0.1875 -0.515625 -0.6875 -0.8125q-0.5 -0.296875 -1.171875 -0.296875q-1.0625 0 -1.84375 0.671875q-0.765625 0.671875 -0.765625 2.578125l0 5.375l-1.671875 0zm13.563232 4.0q-1.375 -1.75 -2.328125 -4.078125q-0.953125 -2.34375 -0.953125 -4.84375q0 -2.21875 0.703125 -4.234375q0.84375 -2.34375 2.578125 -4.671875l1.203125 0q-1.125 1.921875 -1.484375 2.75q-0.5625 1.28125 -0.890625 2.671875q-0.40625 1.734375 -0.40625 3.484375q0 4.46875 2.78125 8.921875l-1.203125 0zm4.1188965 0l-1.1875 0q2.765625 -4.453125 2.765625 -8.921875q0 -1.734375 -0.390625 -3.453125q-0.328125 -1.390625 -0.890625 -2.671875q-0.359375 -0.84375 -1.484375 -2.78125l1.1875 0q1.75 2.328125 2.578125 4.671875q0.71875 2.015625 0.71875 4.234375q0 2.5 -0.96875 4.84375q-0.953125 2.328125 -2.328125 4.078125z" fill-rule="nonzero"></path><path fill="#000000" fill-opacity="0.0" d="m657.6142 197.09973l49.102356 0.28347778" fill-rule="nonzero"></path><path stroke="#000000" stroke-width="2.0" stroke-linejoin="round" stroke-linecap="butt" d="m657.6142 197.09973l37.102478 0.21420288" fill-rule="evenodd"></path><path fill="#000000" stroke="#000000" stroke-width="2.0" stroke-linecap="butt" d="m694.6977 200.61734l9.095093 -3.2510223l-9.057007 -3.3558044z" fill-rule="evenodd"></path><path fill="#000000" fill-opacity="0.0" d="m713.32544 389.74802l89.03937 0l0 63.590576l-89.03937 0z" fill-rule="nonzero"></path><path fill="#000000" d="m732.49994 419.41644l0 -1.671875q-1.25 -0.15625 -2.046875 -0.546875q-0.78125 -0.40625 -1.359375 -1.3125q-0.5625 -0.90625 -0.65625 -2.203125l1.6875 -0.3125q0.1875 1.34375 0.6875 1.984375q0.703125 0.890625 1.6875 0.984375l0 -5.3125q-1.03125 -0.203125 -2.109375 -0.796875q-0.796875 -0.453125 -1.234375 -1.234375q-0.421875 -0.796875 -0.421875 -1.796875q0 -1.78125 1.265625 -2.875q0.84375 -0.75 2.5 -0.921875l0 -0.796875l0.984375 0l0 0.796875q1.453125 0.140625 2.3125 0.859375q1.09375 0.90625 1.3125 2.5l-1.734375 0.25q-0.140625 -0.984375 -0.609375 -1.5q-0.46875 -0.53125 -1.28125 -0.6875l0 4.8125q1.265625 0.3125 1.671875 0.484375q0.78125 0.34375 1.265625 0.84375q0.484375 0.484375 0.75 1.171875q0.265625 0.671875 0.265625 1.453125q0 1.734375 -1.109375 2.90625q-1.09375 1.15625 -2.84375 1.234375l0 1.6875l-0.984375 0zm0 -14.609375q-0.984375 0.140625 -1.546875 0.78125q-0.546875 0.625 -0.546875 1.484375q0 0.859375 0.46875 1.4375q0.484375 0.5625 1.625 0.90625l0 -4.609375zm0.984375 11.53125q0.96875 -0.125 1.59375 -0.84375q0.640625 -0.71875 0.640625 -1.78125q0 -0.921875 -0.453125 -1.46875q-0.4375 -0.546875 -1.78125 -0.984375l0 5.078125zm12.297607 1.125l0 -1.25q-0.9375 1.46875 -2.75 1.46875q-1.171875 0 -2.171875 -0.640625q-0.984375 -0.65625 -1.53125 -1.8125q-0.53125 -1.171875 -0.53125 -2.6875q0 -1.46875 0.484375 -2.671875q0.5 -1.203125 1.46875 -1.84375q0.984375 -0.640625 2.203125 -0.640625q0.890625 0 1.578125 0.375q0.703125 0.375 1.140625 0.984375l0 -4.875l1.65625 0l0 13.59375l-1.546875 0zm-5.28125 -4.921875q0 1.890625 0.796875 2.828125q0.8125 0.9375 1.890625 0.9375q1.09375 0 1.859375 -0.890625q0.765625 -0.890625 0.765625 -2.734375q0 -2.015625 -0.78125 -2.953125q-0.78125 -0.953125 -1.921875 -0.953125q-1.109375 0 -1.859375 0.90625q-0.75 0.90625 -0.75 2.859375zm9.281982 -6.765625l0 -1.90625l1.671875 0l0 1.90625l-1.671875 0zm0 11.6875l0 -9.859375l1.671875 0l0 9.859375l-1.671875 0zm3.8323364 0.8125l1.609375 0.25q0.109375 0.75 0.578125 1.09375q0.609375 0.453125 1.6875 0.453125q1.171875 0 1.796875 -0.46875q0.625 -0.453125 0.859375 -1.28125q0.125 -0.515625 0.109375 -2.15625q-1.09375 1.296875 -2.71875 1.296875q-2.03125 0 -3.15625 -1.46875q-1.109375 -1.46875 -1.109375 -3.515625q0 -1.40625 0.515625 -2.59375q0.515625 -1.203125 1.484375 -1.84375q0.96875 -0.65625 2.265625 -0.65625q1.75 0 2.875 1.40625l0 -1.1875l1.546875 0l0 8.515625q0 2.3125 -0.46875 3.265625q-0.46875 0.96875 -1.484375 1.515625q-1.015625 0.5625 -2.5 0.5625q-1.765625 0 -2.859375 -0.796875q-1.078125 -0.796875 -1.03125 -2.390625zm1.375 -5.921875q0 1.953125 0.765625 2.84375q0.78125 0.890625 1.9375 0.890625q1.140625 0 1.921875 -0.890625q0.78125 -0.890625 0.78125 -2.78125q0 -1.8125 -0.8125 -2.71875q-0.796875 -0.921875 -1.921875 -0.921875q-1.109375 0 -1.890625 0.90625q-0.78125 0.890625 -0.78125 2.671875zm16.047546 1.9375l1.71875 0.21875q-0.40625 1.5 -1.515625 2.34375q-1.09375 0.828125 -2.8125 0.828125q-2.15625 0 -3.421875 -1.328125q-1.265625 -1.328125 -1.265625 -3.734375q0 -2.484375 1.265625 -3.859375q1.28125 -1.375 3.328125 -1.375q1.984375 0 3.234375 1.34375q1.25 1.34375 1.25 3.796875q0 0.140625 -0.015625 0.4375l-7.34375 0q0.09375 1.625 0.921875 2.484375q0.828125 0.859375 2.0625 0.859375q0.90625 0 1.546875 -0.46875q0.65625 -0.484375 1.046875 -1.546875zm-5.484375 -2.703125l5.5 0q-0.109375 -1.234375 -0.625 -1.859375q-0.796875 -0.96875 -2.078125 -0.96875q-1.140625 0 -1.9375 0.78125q-0.78125 0.765625 -0.859375 2.046875zm8.438232 2.9375l1.65625 -0.265625q0.140625 1.0 0.765625 1.53125q0.640625 0.515625 1.78125 0.515625q1.15625 0 1.703125 -0.46875q0.5625 -0.46875 0.5625 -1.09375q0 -0.5625 -0.484375 -0.890625q-0.34375 -0.21875 -1.703125 -0.5625q-1.84375 -0.46875 -2.5625 -0.796875q-0.703125 -0.34375 -1.078125 -0.9375q-0.359375 -0.609375 -0.359375 -1.328125q0 -0.65625 0.296875 -1.21875q0.3125 -0.5625 0.828125 -0.9375q0.390625 -0.28125 1.0625 -0.484375q0.671875 -0.203125 1.4375 -0.203125q1.171875 0 2.046875 0.34375q0.875 0.328125 1.28125 0.90625q0.421875 0.5625 0.578125 1.515625l-1.625 0.21875q-0.109375 -0.75 -0.65625 -1.171875q-0.53125 -0.4375 -1.5 -0.4375q-1.15625 0 -1.640625 0.390625q-0.484375 0.375 -0.484375 0.875q0 0.328125 0.203125 0.59375q0.203125 0.265625 0.640625 0.4375q0.25 0.09375 1.46875 0.4375q1.765625 0.46875 2.46875 0.765625q0.703125 0.296875 1.09375 0.875q0.40625 0.578125 0.40625 1.4375q0 0.828125 -0.484375 1.578125q-0.484375 0.734375 -1.40625 1.140625q-0.921875 0.390625 -2.078125 0.390625q-1.921875 0 -2.9375 -0.796875q-1.0 -0.796875 -1.28125 -2.359375zm13.65625 1.4375l0.234375 1.484375q-0.703125 0.140625 -1.265625 0.140625q-0.90625 0 -1.40625 -0.28125q-0.5 -0.296875 -0.703125 -0.75q-0.203125 -0.46875 -0.203125 -1.984375l0 -5.65625l-1.234375 0l0 -1.3125l1.234375 0l0 -2.4375l1.65625 -1.0l0 3.4375l1.6875 0l0 1.3125l-1.6875 0l0 5.75q0 0.71875 0.078125 0.921875q0.09375 0.203125 0.296875 0.328125q0.203125 0.125 0.578125 0.125q0.265625 0 0.734375 -0.078125z" fill-rule="nonzero"></path><path fill="#000000" d="m741.4279 439.46332l0 -13.59375l1.671875 0l0 13.59375l-1.671875 0zm3.5510864 -4.921875q0 -2.734375 1.53125 -4.0625q1.265625 -1.09375 3.09375 -1.09375q2.03125 0 3.3125 1.34375q1.296875 1.328125 1.296875 3.671875q0 1.90625 -0.578125 3.0q-0.5625 1.078125 -1.65625 1.6875q-1.078125 0.59375 -2.375 0.59375q-2.0625 0 -3.34375 -1.328125q-1.28125 -1.328125 -1.28125 -3.8125zm1.71875 0q0 1.890625 0.828125 2.828125q0.828125 0.9375 2.078125 0.9375q1.25 0 2.0625 -0.9375q0.828125 -0.953125 0.828125 -2.890625q0 -1.828125 -0.828125 -2.765625q-0.828125 -0.9375 -2.0625 -0.9375q-1.25 0 -2.078125 0.9375q-0.828125 0.9375 -0.828125 2.828125zm8.656921 0q0 -2.734375 1.53125 -4.0625q1.265625 -1.09375 3.09375 -1.09375q2.03125 0 3.3125 1.34375q1.296875 1.328125 1.296875 3.671875q0 1.90625 -0.578125 3.0q-0.5625 1.078125 -1.65625 1.6875q-1.078125 0.59375 -2.375 0.59375q-2.0625 0 -3.34375 -1.328125q-1.28125 -1.328125 -1.28125 -3.8125zm1.71875 0q0 1.890625 0.828125 2.828125q0.828125 0.9375 2.078125 0.9375q1.25 0 2.0625 -0.9375q0.828125 -0.953125 0.828125 -2.890625q0 -1.828125 -0.828125 -2.765625q-0.828125 -0.9375 -2.0625 -0.9375q-1.25 0 -2.078125 0.9375q-0.828125 0.9375 -0.828125 2.828125zm9.281982 8.703125l0 -13.640625l1.53125 0l0 1.28125q0.53125 -0.75 1.203125 -1.125q0.6875 -0.375 1.640625 -0.375q1.265625 0 2.234375 0.65625q0.96875 0.640625 1.453125 1.828125q0.5 1.1875 0.5 2.59375q0 1.515625 -0.546875 2.734375q-0.546875 1.203125 -1.578125 1.84375q-1.03125 0.640625 -2.171875 0.640625q-0.84375 0 -1.515625 -0.34375q-0.65625 -0.359375 -1.078125 -0.890625l0 4.796875l-1.671875 0zm1.515625 -8.65625q0 1.90625 0.765625 2.8125q0.78125 0.90625 1.875 0.90625q1.109375 0 1.890625 -0.9375q0.796875 -0.9375 0.796875 -2.921875q0 -1.875 -0.78125 -2.8125q-0.765625 -0.9375 -1.84375 -0.9375q-1.0625 0 -1.890625 1.0q-0.8125 1.0 -0.8125 2.890625z" fill-rule="nonzero"></path><path fill="#3d85c6" d="m633.95013 435.18503l0 0c0 -39.515656 22.443848 -74.026825 54.566956 -83.90573l0 9.094482l18.188965 -20.940704l-18.188965 -15.437256l0 9.094513l0 0c-32.123108 9.878906 -54.566956 44.390076 -54.566956 83.90573z" fill-rule="nonzero"></path><path fill="#306a9e" d="m706.70605 503.65353l0 0c-37.226135 0 -68.44739 -33.468872 -72.354126 -77.56299c-2.1645508 24.430206 4.4780884 48.80664 18.275696 67.0661c13.797546 18.25943 33.45343 28.685883 54.07843 28.685883z" fill-rule="nonzero"></path><path fill="#000000" fill-opacity="0.0" d="m633.95013 435.18503l0 0c0 -39.515656 22.443848 -74.026825 54.566956 -83.90573l0 9.094482l18.188965 -20.940704l-18.188965 -15.437256l0 9.094513l0 0c-32.123108 9.878906 -54.566956 44.390076 -54.566956 83.90573l0 18.188965l0 0c0 47.85962 32.573914 86.6575 72.75592 86.6575l0 -18.188995l0 0c-37.226135 0 -68.44739 -33.468872 -72.354126 -77.56299" fill-rule="nonzero"></path><path stroke="#666666" stroke-width="2.0" stroke-linejoin="round" stroke-linecap="butt" d="m633.95013 435.18503l0 0c0 -39.515656 22.443848 -74.026825 54.566956 -83.90573l0 9.094482l18.188965 -20.940704l-18.188965 -15.437256l0 9.094513l0 0c-32.123108 9.878906 -54.566956 44.390076 -54.566956 83.90573l0 18.188965l0 0c0 47.85962 32.573914 86.6575 72.75592 86.6575l0 -18.188995l0 0c-37.226135 0 -68.44739 -33.468872 -72.354126 -77.56299" fill-rule="nonzero"></path><path fill="#3d85c6" d="m881.7402 407.90158l0 0c0 39.515656 -22.443848 74.026825 -54.566956 83.90573l0 -9.094482l-18.188965 20.940704l18.188965 15.437225l0 -9.094452l0 0c32.123108 -9.878937 54.566956 -44.390106 54.566956 -83.90576z" fill-rule="nonzero"></path><path fill="#306a9e" d="m808.98425 339.43307l0 0c37.226135 0 68.44733 33.468872 72.354126 77.56299c2.1645508 -24.430176 -4.4780884 -48.80664 -18.275696 -67.0661c-13.797607 -18.25943 -33.45343 -28.685883 -54.07843 -28.685883z" fill-rule="nonzero"></path><path fill="#000000" fill-opacity="0.0" d="m881.7402 407.90158l0 0c0 39.515656 -22.443848 74.026825 -54.566956 83.90573l0 -9.094482l-18.188965 20.940704l18.188965 15.437225l0 -9.094452l0 0c32.123108 -9.878937 54.566956 -44.390106 54.566956 -83.90576l0 -18.188965l0 0c0 -47.85962 -32.573975 -86.6575 -72.75592 -86.6575l0 18.188995l0 0c37.226135 0 68.44733 33.468872 72.354126 77.56299" fill-rule="nonzero"></path><path stroke="#666666" stroke-width="2.0" stroke-linejoin="round" stroke-linecap="butt" d="m881.7402 407.90158l0 0c0 39.515656 -22.443848 74.026825 -54.566956 83.90573l0 -9.094482l-18.188965 20.940704l18.188965 15.437225l0 -9.094452l0 0c32.123108 -9.878937 54.566956 -44.390106 54.566956 -83.90576l0 -18.188965l0 0c0 -47.85962 -32.573975 -86.6575 -72.75592 -86.6575l0 18.188995l0 0c37.226135 0 68.44733 33.468872 72.354126 77.56299" fill-rule="nonzero"></path><path fill="#000000" fill-opacity="0.0" d="m744.60895 229.17848l0.06298828 58.45668" fill-rule="nonzero"></path><path stroke="#000000" stroke-width="2.0" stroke-linejoin="round" stroke-linecap="butt" d="m744.60895 229.17848l0.049987793 46.45668" fill-rule="evenodd"></path><path fill="#000000" stroke="#000000" stroke-width="2.0" stroke-linecap="butt" d="m741.3555 275.63873l3.3132324 9.072632l3.2937012 -9.079742z" fill-rule="evenodd"></path><path fill="#d9d9d9" d="m67.18898 420.15283l0 0c0 -16.792114 13.612694 -30.404816 30.4048 -30.404816l161.52109 0c8.063873 0 15.797455 3.2033691 21.49945 8.905365c5.7020264 5.7020264 8.905365 13.435608 8.905365 21.49945l0 121.6156c0 16.792114 -13.612701 30.404785 -30.404816 30.404785l-161.52109 0c-16.792107 0 -30.4048 -13.612671 -30.4048 -30.404785z" fill-rule="nonzero"></path><path stroke="#999999" stroke-width="2.0" stroke-linejoin="round" stroke-linecap="butt" stroke-dasharray="8.0,6.0" d="m67.18898 420.15283l0 0c0 -16.792114 13.612694 -30.404816 30.4048 -30.404816l161.52109 0c8.063873 0 15.797455 3.2033691 21.49945 8.905365c5.7020264 5.7020264 8.905365 13.435608 8.905365 21.49945l0 121.6156c0 16.792114 -13.612701 30.404785 -30.404816 30.404785l-161.52109 0c-16.792107 0 -30.4048 -13.612671 -30.4048 -30.404785z" fill-rule="nonzero"></path><path fill="#000000" fill-opacity="0.0" d="m67.188194 389.74802l178.61417 0l0 63.590576l-178.61417 0z" fill-rule="nonzero"></path><path fill="#000000" d="m103.01554 428.4633l0 -13.59375l4.6875 0q1.578125 0 2.421875 0.1875q1.15625 0.265625 1.984375 0.96875q1.078125 0.921875 1.609375 2.34375q0.53125 1.40625 0.53125 3.21875q0 1.546875 -0.359375 2.75q-0.359375 1.1875 -0.921875 1.984375q-0.5625 0.78125 -1.234375 1.234375q-0.671875 0.4375 -1.625 0.671875q-0.953125 0.234375 -2.1875 0.234375l-4.90625 0zm1.796875 -1.609375l2.90625 0q1.34375 0 2.109375 -0.25q0.765625 -0.25 1.21875 -0.703125q0.640625 -0.640625 1.0 -1.71875q0.359375 -1.078125 0.359375 -2.625q0 -2.125 -0.703125 -3.265625q-0.703125 -1.15625 -1.703125 -1.546875q-0.71875 -0.28125 -2.328125 -0.28125l-2.859375 0l0 10.390625zm11.129196 -5.015625q0 -3.390625 1.8125 -5.296875q1.828125 -1.921875 4.703125 -1.921875q1.875 0 3.390625 0.90625q1.515625 0.890625 2.2968826 2.5q0.796875 1.609375 0.796875 3.65625q0 2.0625 -0.84375 3.703125q-0.8281326 1.625 -2.3593826 2.46875q-1.53125 0.84375 -3.296875 0.84375q-1.921875 0 -3.4375 -0.921875q-1.5 -0.9375 -2.28125 -2.53125q-0.78125 -1.609375 -0.78125 -3.40625zm1.859375 0.03125q0 2.453125 1.3125 3.875q1.328125 1.40625 3.3125 1.40625q2.03125 0 3.34375 -1.421875q1.3125 -1.4375 1.3125 -4.0625q0 -1.65625 -0.5625 -2.890625q-0.546875 -1.234375 -1.640625 -1.921875q-1.078125 -0.6875 -2.421875 -0.6875q-1.90625 0 -3.28125 1.3125q-1.375 1.3125 -1.375 4.390625zm13.136436 6.59375l0 -13.59375l2.71875 0l3.21875 9.625q0.4375 1.34375 0.640625 2.015625q0.234375 -0.75 0.734375 -2.1875l3.25 -9.453125l2.421875 0l0 13.59375l-1.734375 0l0 -11.390625l-3.953125 11.390625l-1.625 0l-3.9375 -11.578125l0 11.578125l-1.734375 0zm20.817856 0l0 -13.59375l6.03125 0q1.8125 0 2.75 0.359375q0.953125 0.359375 1.515625 1.296875q0.5625 0.921875 0.5625 2.046875q0 1.453125 -0.9375 2.453125q-0.921875 0.984375 -2.890625 1.25q0.71875 0.34375 1.09375 0.671875q0.78125 0.734375 1.484375 1.8125l2.375 3.703125l-2.265625 0l-1.796875 -2.828125q-0.796875 -1.21875 -1.3125 -1.875q-0.5 -0.65625 -0.90625 -0.90625q-0.40625 -0.265625 -0.8125 -0.359375q-0.3125 -0.078125 -1.015625 -0.078125l-2.078125 0l0 6.046875l-1.796875 0zm1.796875 -7.59375l3.859375 0q1.234375 0 1.921875 -0.25q0.703125 -0.265625 1.0625 -0.828125q0.375 -0.5625 0.375 -1.21875q0 -0.96875 -0.703125 -1.578125q-0.703125 -0.625 -2.21875 -0.625l-4.296875 0l0 4.5zm18.176071 4.421875l1.71875 0.21875q-0.40625 1.5 -1.515625 2.34375q-1.09375 0.828125 -2.8125 0.828125q-2.15625 0 -3.421875 -1.328125q-1.265625 -1.328125 -1.265625 -3.734375q0 -2.484375 1.265625 -3.859375q1.28125 -1.375 3.328125 -1.375q1.984375 0 3.234375 1.34375q1.25 1.34375 1.25 3.796875q0 0.140625 -0.015625 0.4375l-7.34375 0q0.09375 1.625 0.921875 2.484375q0.828125 0.859375 2.0625 0.859375q0.90625 0 1.546875 -0.46875q0.65625 -0.484375 1.046875 -1.546875zm-5.484375 -2.703125l5.5 0q-0.109375 -1.234375 -0.625 -1.859375q-0.796875 -0.96875 -2.078125 -0.96875q-1.140625 0 -1.9375 0.78125q-0.78125 0.765625 -0.859375 2.046875zm9.110092 5.875l0 -9.859375l1.5 0l0 1.40625q1.09375 -1.625 3.140625 -1.625q0.890625 0 1.640625 0.328125q0.75 0.3125 1.109375 0.84375q0.375 0.515625 0.53125 1.21875q0.09375 0.46875 0.09375 1.625l0 6.0625l-1.671875 0l0 -6.0q0 -1.015625 -0.203125 -1.515625q-0.1875 -0.515625 -0.6875 -0.8125q-0.5 -0.296875 -1.171875 -0.296875q-1.0625 0 -1.84375 0.671875q-0.765625 0.671875 -0.765625 2.578125l0 5.375l-1.671875 0zm16.766342 0l0 -1.25q-0.9375 1.46875 -2.75 1.46875q-1.171875 0 -2.171875 -0.640625q-0.984375 -0.65625 -1.53125 -1.8125q-0.53125 -1.171875 -0.53125 -2.6875q0 -1.46875 0.484375 -2.671875q0.5 -1.203125 1.46875 -1.84375q0.984375 -0.640625 2.203125 -0.640625q0.890625 0 1.578125 0.375q0.703125 0.375 1.140625 0.984375l0 -4.875l1.65625 0l0 13.59375l-1.546875 0zm-5.28125 -4.921875q0 1.890625 0.796875 2.828125q0.8125 0.9375 1.890625 0.9375q1.09375 0 1.859375 -0.890625q0.765625 -0.890625 0.765625 -2.734375q0 -2.015625 -0.78125 -2.953125q-0.78125 -0.953125 -1.921875 -0.953125q-1.109375 0 -1.859375 0.90625q-0.75 0.90625 -0.75 2.859375zm16.016342 1.75l1.71875 0.21875q-0.40625 1.5 -1.515625 2.34375q-1.09375 0.828125 -2.8125 0.828125q-2.15625 0 -3.421875 -1.328125q-1.265625 -1.328125 -1.265625 -3.734375q0 -2.484375 1.265625 -3.859375q1.28125 -1.375 3.328125 -1.375q1.984375 0 3.234375 1.34375q1.25 1.34375 1.25 3.796875q0 0.140625 -0.015625 0.4375l-7.34375 0q0.09375 1.625 0.921875 2.484375q0.828125 0.859375 2.0625 0.859375q0.90625 0 1.546875 -0.46875q0.65625 -0.484375 1.046875 -1.546875zm-5.484375 -2.703125l5.5 0q-0.109375 -1.234375 -0.625 -1.859375q-0.796875 -0.96875 -2.078125 -0.96875q-1.140625 0 -1.9375 0.78125q-0.78125 0.765625 -0.859375 2.046875zm9.094467 5.875l0 -9.859375l1.5 0l0 1.5q0.578125 -1.046875 1.0625 -1.375q0.484375 -0.34375 1.078125 -0.34375q0.84375 0 1.71875 0.546875l-0.578125 1.546875q-0.609375 -0.359375 -1.234375 -0.359375q-0.546875 0 -0.984375 0.328125q-0.421875 0.328125 -0.609375 0.90625q-0.28125 0.890625 -0.28125 1.953125l0 5.15625l-1.671875 0z" fill-rule="nonzero"></path><path fill="#000000" fill-opacity="0.0" d="m641.52234 522.2992l-358.6142 0" fill-rule="nonzero"></path><path stroke="#000000" stroke-width="2.0" stroke-linejoin="round" stroke-linecap="butt" d="m641.52234 522.2992l-346.6142 0" fill-rule="evenodd"></path><path fill="#000000" stroke="#000000" stroke-width="2.0" stroke-linecap="butt" d="m294.90814 518.9957l-9.076202 3.3034668l9.076202 3.3034668z" fill-rule="evenodd"></path></g></svg>

